<svg xmlns="http://www.w3.org/2000/svg" xmlns:xlink="http://www.w3.org/1999/xlink"><symbol id="features-bg-figure-1" viewBox="0 0 951 413">
<circle opacity="0.1" cx="631" cy="207" r="204.5" stroke="black" fill="none"/>
<path opacity="0.1" d="M431 1L842 412" stroke="black"/>
<path opacity="0.1" d="M0.99783 411H950.032" stroke="black"/>
</symbol><symbol id="features-bg-figure-2" viewBox="0 0 692 691">
<path opacity="0.05" d="M621 30H2.59876e-05" stroke="black"/>
<path opacity="0.05" d="M31 620L31 2.74181e-05" stroke="black"/>
<circle opacity="0.1" cx="326" cy="325" r="294.5" stroke="black" fill="none"/>
<path opacity="0.05" d="M31 30L691 690" stroke="black"/>
</symbol><symbol id="logo" viewBox="0 0 147 16">
<path d="M6.78968 0.739131C6.29162 0.768116 5.93273 0.826088 5.713 0.913045C5.49327 1 5.33946 1.16667 5.25156 1.41304C5.17832 1.65942 5.1417 2.05797 5.1417 2.6087V13.3913C5.1417 13.942 5.17832 14.3406 5.25156 14.587C5.33946 14.8333 5.49327 15 5.713 15.087C5.93273 15.1739 6.29162 15.2319 6.78968 15.2609V15.6957C5.99865 15.6522 4.89267 15.6304 3.47175 15.6304C1.90433 15.6304 0.747084 15.6522 0 15.6957V15.2609C0.483408 15.2319 0.834977 15.1739 1.05471 15.087C1.28909 15 1.4429 14.8333 1.51614 14.587C1.60403 14.3406 1.64798 13.942 1.64798 13.3913V2.6087C1.64798 2.05797 1.60403 1.65942 1.51614 1.41304C1.4429 1.16667 1.28909 1 1.05471 0.913045C0.834977 0.826088 0.483408 0.768116 0 0.739131V0.304349C0.747084 0.347827 1.90433 0.369566 3.47175 0.369566C4.89267 0.369566 5.99865 0.347827 6.78968 0.304349V0.739131Z" fill="white"/>
<path d="M13.7866 0.0217401C14.5483 0.0217401 15.1563 0.0942038 15.6104 0.239131C16.0645 0.384059 16.5259 0.594203 16.9947 0.869566C17.1558 0.956522 17.295 1.02899 17.4122 1.08696C17.544 1.14493 17.6539 1.17391 17.7418 1.17391C17.8736 1.17391 17.9761 1.10145 18.0494 0.956522C18.1226 0.797102 18.1812 0.550726 18.2252 0.217392H18.7306C18.6573 1.18841 18.6207 2.84058 18.6207 5.17391H18.1153C18.0567 4.3913 17.8736 3.64493 17.566 2.93478C17.273 2.22464 16.8482 1.65217 16.2915 1.21739C15.7495 0.768117 15.1123 0.543479 14.3799 0.543479C13.6621 0.543479 13.0762 0.746378 12.622 1.15217C12.1826 1.54348 11.9628 2.07971 11.9628 2.76087C11.9628 3.26812 12.0727 3.71015 12.2924 4.08696C12.5122 4.46377 12.8198 4.81159 13.2153 5.13044C13.6108 5.43478 14.2188 5.85507 15.0391 6.3913L15.7422 6.86957C16.6065 7.43478 17.2877 7.92754 17.7857 8.34783C18.2838 8.76812 18.6866 9.26087 18.9942 9.82609C19.3165 10.3768 19.4776 11.0217 19.4776 11.7609C19.4776 12.6884 19.2359 13.471 18.7525 14.1087C18.2691 14.7319 17.6099 15.2029 16.775 15.5217C15.9546 15.8406 15.0391 16 14.0283 16C13.208 16 12.5268 15.9275 11.9848 15.7826C11.4428 15.6377 10.9448 15.442 10.4907 15.1957C10.1684 14.9928 9.91935 14.8913 9.74357 14.8913C9.61173 14.8913 9.50919 14.971 9.43595 15.1304C9.3627 15.2754 9.30411 15.5145 9.26016 15.8478H8.75478C8.81338 14.9348 8.84267 12.9783 8.84267 9.97826H9.34805C9.4506 11.6014 9.81681 12.9203 10.4467 13.9348C11.0766 14.9348 12.0434 15.4348 13.3472 15.4348C14.1382 15.4348 14.7901 15.2246 15.3028 14.8043C15.8155 14.3841 16.0718 13.7826 16.0718 13C16.0718 12.1884 15.8081 11.4928 15.2808 10.913C14.7534 10.3333 13.9185 9.68116 12.7759 8.95652C11.8969 8.3913 11.1938 7.89855 10.6664 7.47826C10.1391 7.05797 9.70695 6.56522 9.37003 6C9.03311 5.42029 8.86465 4.75362 8.86465 4C8.86465 3.13043 9.08438 2.39855 9.52384 1.80435C9.97795 1.19565 10.5785 0.746377 11.3256 0.456522C12.0727 0.166668 12.893 0.0217401 13.7866 0.0217401Z" fill="white"/>
<path d="M33.5568 13.8696C33.7472 14.3478 33.9669 14.6957 34.216 14.913C34.465 15.1304 34.7067 15.2464 34.9411 15.2609V15.6957C34.0621 15.6522 32.9488 15.6304 31.6012 15.6304C30.107 15.6304 28.9937 15.6522 28.2613 15.6957V15.2609C28.8179 15.2319 29.2134 15.1667 29.4478 15.0652C29.6822 14.9493 29.7994 14.7536 29.7994 14.4783C29.7994 14.2174 29.7115 13.8696 29.5357 13.4348L28.2173 9.86957H23.4272L22.8559 11.3696C22.4457 12.413 22.2406 13.2174 22.2406 13.7826C22.2406 14.3188 22.4018 14.6957 22.724 14.913C23.061 15.1159 23.5517 15.2319 24.1962 15.2609V15.6957C23.2001 15.6522 22.2919 15.6304 21.4716 15.6304C20.7977 15.6304 20.2411 15.6522 19.8016 15.6957V15.2609C20.5194 15.1304 21.1493 14.3696 21.6913 12.9783L26.7012 0.26087C26.8623 0.275363 27.1187 0.282609 27.4702 0.282609C27.8218 0.282609 28.0708 0.275363 28.2173 0.26087L33.5568 13.8696ZM28.0635 9.43478L25.8882 3.56522L23.603 9.43478H28.0635Z" fill="white"/>
<path d="M49.2497 13.9348C49.4694 14.2681 49.6965 14.5362 49.9309 14.7391C50.1652 14.942 50.4655 15.1159 50.8317 15.2609V15.6957C49.8063 15.6522 48.6637 15.6304 47.4039 15.6304C46.4371 15.6304 45.5069 15.6522 44.6134 15.6957V15.2609C45.0235 15.2319 45.3165 15.1884 45.4923 15.1304C45.6827 15.0725 45.7779 14.971 45.7779 14.8261C45.7779 14.7101 45.6974 14.529 45.5362 14.2826L42.3501 9.17391C42.0572 8.71014 41.8081 8.39855 41.6031 8.23913C41.4126 8.07971 41.1489 7.98551 40.812 7.95652V13.3913C40.812 13.942 40.8487 14.3406 40.9219 14.587C41.0098 14.8333 41.1636 15 41.3833 15.087C41.6031 15.1739 41.962 15.2319 42.46 15.2609V15.6957C41.669 15.6522 40.563 15.6304 39.1421 15.6304C37.5747 15.6304 36.4174 15.6522 35.6703 15.6957V15.2609C36.1537 15.2319 36.5053 15.1739 36.725 15.087C36.9594 15 37.1132 14.8333 37.1865 14.587C37.2744 14.3406 37.3183 13.942 37.3183 13.3913V2.6087C37.3183 2.05797 37.2744 1.65942 37.1865 1.41304C37.1132 1.16667 36.9594 1 36.725 0.913045C36.5053 0.826088 36.1537 0.768116 35.6703 0.739131V0.304349C36.4174 0.347827 37.5747 0.369566 39.1421 0.369566C40.563 0.369566 41.669 0.347827 42.46 0.304349V0.739131C41.962 0.768116 41.6031 0.826088 41.3833 0.913045C41.1636 1 41.0098 1.16667 40.9219 1.41304C40.8487 1.65942 40.812 2.05797 40.812 2.6087V7.5C41.398 7.47101 41.9327 7.2971 42.4161 6.97826C42.8995 6.65942 43.4488 6.15217 44.064 5.45652L45.3605 3.91304C46.0343 3.14493 46.3712 2.47101 46.3712 1.8913C46.3712 1.54348 46.2247 1.26812 45.9318 1.06522C45.6534 0.862319 45.2579 0.746378 44.7452 0.717392V0.304349C45.8146 0.347827 46.8986 0.369566 47.9972 0.369566C48.8468 0.369566 49.5353 0.347827 50.0627 0.304349V0.717392C48.8908 0.992755 47.8288 1.68841 46.8766 2.80435L44.13 6.04348L49.2497 13.9348Z" fill="white"/>
<path d="M58.4632 0C60.0159 0 61.3709 0.311594 62.5282 0.934783C63.7001 1.55797 64.6083 2.46377 65.2528 3.65217C65.8974 4.82609 66.2197 6.23188 66.2197 7.86957C66.2197 9.46377 65.8901 10.8768 65.2309 12.1087C64.5717 13.3406 63.6488 14.2971 62.4623 14.9783C61.2904 15.6594 59.95 16 58.4412 16C56.8884 16 55.5261 15.6884 54.3542 15.0652C53.1969 14.442 52.2961 13.5435 51.6515 12.3696C51.007 11.1812 50.6847 9.76812 50.6847 8.13044C50.6847 6.53623 51.0143 5.12319 51.6735 3.8913C52.3327 2.65942 53.2482 1.7029 54.4201 1.02174C55.6067 0.34058 56.9543 0 58.4632 0ZM58.3753 0.391304C57.5696 0.391304 56.8591 0.717392 56.2439 1.36957C55.6286 2.00725 55.1526 2.9058 54.8156 4.06522C54.4934 5.22464 54.3322 6.55073 54.3322 8.04348C54.3322 9.55072 54.5153 10.8768 54.8815 12.0217C55.2624 13.1667 55.7678 14.0507 56.3977 14.6739C57.0422 15.2971 57.7527 15.6087 58.5291 15.6087C59.3348 15.6087 60.0452 15.2899 60.6605 14.6522C61.2757 14 61.7445 13.0942 62.0667 11.9348C62.4037 10.7754 62.5721 9.44928 62.5721 7.95652C62.5721 6.44928 62.3817 5.12319 62.0008 3.97826C61.6346 2.83333 61.1292 1.94928 60.4847 1.32609C59.8548 0.702899 59.1516 0.391304 58.3753 0.391304Z" fill="white"/>
<path d="M79.93 0.369566C80.6039 0.369566 81.1605 0.347827 81.6 0.304349V0.739131C81.2338 0.869566 80.8749 1.14493 80.5233 1.56522C80.1718 1.98551 79.8568 2.57246 79.5785 3.32609L74.9422 15.7391C74.781 15.7246 74.5247 15.7174 74.1731 15.7174C73.8362 15.7174 73.5872 15.7246 73.426 15.7391L67.8229 2.13044C67.6325 1.65218 67.4127 1.30435 67.1637 1.08696C66.9147 0.869566 66.673 0.753624 66.4386 0.739131V0.304349C67.3175 0.347827 68.4308 0.369566 69.7785 0.369566C71.2873 0.369566 72.4006 0.347827 73.1184 0.304349V0.739131C72.5617 0.768116 72.1662 0.833334 71.9318 0.934783C71.6975 1.03623 71.5803 1.23913 71.5803 1.54348C71.5803 1.78986 71.6682 2.13044 71.844 2.56522L75.7112 12.3043L78.4139 5.08696C78.8241 3.97102 79.0292 3.08696 79.0292 2.43478C79.0292 1.85507 78.868 1.43478 78.5457 1.17391C78.2381 0.913044 77.784 0.768116 77.1834 0.739131V0.304349C78.1795 0.347827 79.0951 0.369566 79.93 0.369566Z" fill="white"/>
<path d="M95.2133 0.809626C94.9919 0.277424 95.5199 0.175514 95.7981 0.175514V0.0736023H93.5612V0.175514C93.9189 0.175514 94.1687 0.32838 94.4242 0.883228L90.4946 10.6667L86.3794 0.809626C86.158 0.277424 86.686 0.175514 86.9642 0.175514V0.0736023H84.7273V0.175514C85.085 0.175514 85.3348 0.32838 85.5903 0.883228L82.7857 8.24345C82.2236 9.70984 82.1328 10.678 82.1328 11.2328C82.1328 13.8995 84.4492 15.9264 87.3446 15.9264H88.4857L89.0421 14.6865H88.9399C87.9995 15.4667 87.7443 15.4667 87.4661 15.4667C85.3372 15.4667 82.6661 14.1158 82.6661 11.2C82.6661 10.6678 82.6374 9.73871 83.1995 8.26667L85.8661 1.06667L91.5912 15.2696C91.8126 15.8018 91.1881 15.8245 91.1086 15.8245V15.9264H93.1979V15.8245C93.1184 15.8245 92.6699 15.9038 92.4087 15.2696L90.7171 11.2L94.6661 1.06667L100.425 15.2696C100.646 15.8018 100.022 15.8245 99.9425 15.8245V15.9264H102.032V15.8245C101.952 15.8245 101.504 15.8981 101.243 15.2696L95.2133 0.809626Z" fill="white"/>
<path d="M111.999 0.8C111.999 0.267799 112.095 0.175514 112.555 0.175514V0.0736023H111.028V0.175514C111.488 0.175514 111.466 0.267799 111.466 0.8V12C111.466 14.1515 109.989 15.8981 107.571 15.8981C105.232 15.8981 103.653 14.3298 103.653 11.7424V0.832272C103.653 0.300071 103.909 0.175514 104.369 0.175514V0.0736023H102.172V0.175514C102.631 0.175514 102.887 0.300071 102.887 0.832272V11.5895C102.887 14.2505 104.902 16 107.571 16C110.012 16 111.999 14.2817 111.999 12V0.8Z" fill="white"/>
<path d="M119.967 16C122.59 16 124.827 14.2732 124.827 11.9179C124.827 9.35315 122.692 7.96037 120.223 6.53928C118.145 5.34466 115.948 4.43878 115.948 2.5138C115.948 1.09271 116.919 0.19816 118.571 0.19816C119.763 0.19816 120.887 0.605804 122.005 1.18896C122.579 1.48903 122.897 1.95329 122.868 2.6327H122.971V1.138C122.63 1.0644 120.785 0.464261 120.603 0.401982C119.496 0.0339705 118.928 0 118.395 0C116.459 0 115.215 1.14367 115.215 2.76292C115.215 4.76716 117.095 5.84855 119.564 7.15074C121.92 8.39066 124.14 10.0665 124.14 12.2463C124.14 14.3751 122.357 15.8754 119.865 15.8754C117.73 15.8754 115.8 14.6299 114.579 12.9087H114.477V15.3942H114.579C114.659 14.9469 114.721 14.4544 115.153 14.4544C115.272 14.4544 115.374 14.4713 115.596 14.6072C117.191 15.5867 118.292 16 119.967 16Z" fill="white"/>
<path d="M129.173 15.9264V15.8245C128.719 15.8245 128.464 15.6999 128.464 15.1677V0.832272C128.464 0.300071 128.719 0.175514 129.173 0.175514V0.0736023H126.988V0.175514C127.442 0.175514 127.697 0.300071 127.697 0.832272V15.1677C127.697 15.6999 127.442 15.8245 126.988 15.8245V15.9264H129.173Z" fill="white"/>
<path d="M146.592 5.0729C145.423 2.12881 142.544 0 139.087 0C134.687 0 131.076 3.60085 131.076 7.98868C131.076 12.3482 134.613 16 139.138 16C142.596 16 145.548 13.7976 146.666 10.7289H146.388C145.548 13.5655 142.976 15.5471 139.797 15.5471C135.374 15.5471 131.53 11.7197 131.53 7.33192C131.53 3.40269 134.511 0.452938 138.428 0.452938C141.579 0.452938 144.401 2.38358 145.803 5.0729H146.592Z" fill="white"/>
</symbol><symbol id="my-story-bg-circle" viewBox="0 0 480 480">
<circle opacity="0.2" r="239.5" transform="matrix(-1 0 0 1 240 240)" stroke="white"/>
</symbol></svg>